<svg id="Layer_1" data-name="Layer 1" xmlns="http://www.w3.org/2000/svg" viewBox="0 0 346.11 245.15"><defs><style>.cls-1{fill:#f4a28c;}.cls-2{fill:#ce8172;opacity:0.31;}.cls-2,.cls-5,.cls-6,.cls-8{isolation:isolate;}.cls-3{fill:#24285b;}.cls-4{fill:#44a06f;}.cls-13,.cls-5{fill:#fff;}.cls-5{opacity:0.46;}.cls-10,.cls-6{fill:#e6e6e6;}.cls-6{opacity:0.45;}.cls-7{fill:#171a1f;}.cls-8{opacity:0.08;}.cls-9{fill:#c9c9c9;}.cls-11{fill:#68e1fd;}.cls-12{fill:#ffd200;}.cls-14{fill:#a5a5a5;}</style></defs><path class="cls-1" d="M324.14,104.5a26.11,26.11,0,0,0,.86,6.88,2.11,2.11,0,0,0,2.67,1.32h0a4.61,4.61,0,0,0,3.34-3.75l1-3.73a3.75,3.75,0,0,0-2-3.86C327.55,99.84,324,102,324.14,104.5Z" transform="translate(-32.85 -32.01)"/><polygon class="cls-1" points="299.75 75.4 300.93 89.03 293.38 89.15 295.5 79.43 299.75 75.4"/><path class="cls-1" d="M324.25,107.13l-1,1.7a.66.66,0,0,0,.49,1l1.62.17Z" transform="translate(-32.85 -32.01)"/><path class="cls-2" d="M328.28,111.72a5,5,0,0,0,2.44-1.21s.54,2.95-3.05,4Z" transform="translate(-32.85 -32.01)"/><path class="cls-1" d="M332.31,107.46s-.1-1.61,1.12-1.58,1.36,2.35-.27,2.69Z" transform="translate(-32.85 -32.01)"/><path class="cls-3" d="M325,104.28a12.26,12.26,0,0,0,4,0s.85,4.63,4.53,5.8c0,0,3.48-6.93-.79-9.61-3.58-2.24-6.24-4.23-9.19-1.56a3.13,3.13,0,0,0-.21,4.42A3.18,3.18,0,0,0,325,104.28Z" transform="translate(-32.85 -32.01)"/><circle class="cls-3" cx="302.28" cy="66.45" r="4.15"/><path class="cls-1" d="M328.93,106.68s.18-1.86,1.67-1.57,1.46,2.46-.41,3.31Z" transform="translate(-32.85 -32.01)"/><path class="cls-4" d="M322,124.79a4.83,4.83,0,0,1,2.81-5.46c3.75-1.86,12.63-4.06,13.95,3.19C338.75,122.55,330.49,127.89,322,124.79Z" transform="translate(-32.85 -32.01)"/><path class="cls-5" d="M322,124.79a4.83,4.83,0,0,1,2.81-5.46c3.75-1.86,12.63-4.06,13.95,3.19C338.75,122.55,330.49,127.89,322,124.79Z" transform="translate(-32.85 -32.01)"/><ellipse class="cls-6" cx="173.06" cy="231.57" rx="173.06" ry="13.58"/><path class="cls-4" d="M109.68,248.41s.06,4,3.18,5.38,2.88,4.81-.29,4.64-9.35-6.47-9.35-6.47l2.34-5.78Z" transform="translate(-32.85 -32.01)"/><path class="cls-7" d="M97.44,206.41s18.63.82,16.6,13.46-10.26,26.31-10.26,26.31l7.17,3s14.21-16.32,15.6-36.46S99.39,197.07,97.44,206.41Z" transform="translate(-32.85 -32.01)"/><path class="cls-8" d="M97.44,206.41s18.63.82,16.6,13.46-10.26,26.31-10.26,26.31l7.17,3s14.21-16.32,15.6-36.46S99.39,197.07,97.44,206.41Z" transform="translate(-32.85 -32.01)"/><path class="cls-4" d="M84.56,130c-6.76-5.23-16.93-2.55-19.76,5.52a12.16,12.16,0,0,0-.07,7.77C67.94,153.59,73,167.63,92,172.7s34.85,8.87,36.38,2.22-2.71-15.1-18.27-20.3C99,150.87,93.16,136.62,84.56,130Z" transform="translate(-32.85 -32.01)"/><path class="cls-8" d="M84.56,130.09c-6.76-5.22-16.93-2.54-19.76,5.53a12.13,12.13,0,0,0-.07,7.76C67.94,153.7,73,167.74,92,172.82s34.85,8.87,36.38,2.22-2.71-15.1-18.27-20.3C99,151,93.16,136.73,84.56,130.09Z" transform="translate(-32.85 -32.01)"/><path class="cls-4" d="M124.65,249.28s0,4,3.18,5.38,2.88,4.81-.3,4.64-9.34-6.46-9.34-6.46l2.29-5.8Z" transform="translate(-32.85 -32.01)"/><path class="cls-1" d="M320.49,181.19,288.8,157.77s-10-7.1-11.57-1,9.84,7.1,9.84,7.1,19.39,31,29.11,27.31S320.49,181.19,320.49,181.19Z" transform="translate(-32.85 -32.01)"/><path class="cls-8" d="M320.49,181.19,288.8,157.77s-10-7.1-11.57-1,9.84,7.1,9.84,7.1,19.39,31,29.11,27.31S320.49,181.19,320.49,181.19Z" transform="translate(-32.85 -32.01)"/><polygon class="cls-1" points="257.62 186.52 285.85 217.26 289.75 215.58 268.45 177.73 257.62 186.52"/><path class="cls-4" d="M318.18,248.49s0,3.83-2.54,5.56-.22,5.4,3.37,2a25.54,25.54,0,0,0,3.05-3.35,7.93,7.93,0,0,1,3.35-2.39,1.31,1.31,0,0,0,.76-1.29c.11-2.13-4.87-3.05-4.87-3.05Z" transform="translate(-32.85 -32.01)"/><path class="cls-7" d="M308.75,191.1s-39.43-.29-33.72,23.05a46.44,46.44,0,0,0,24.76,31.21L314,219.31l-7.82-22.67Z" transform="translate(-32.85 -32.01)"/><path class="cls-8" d="M308.75,191.1s-39.43-.29-33.72,23.05a46.44,46.44,0,0,0,24.76,31.21L314,219.31l-7.82-22.67Z" transform="translate(-32.85 -32.01)"/><rect class="cls-9" x="293.91" y="180.03" width="4.2" height="36.25"/><path class="cls-10" d="M342.79,124.18s3.86-20.72,22.47-11.34c13.71,6.91.31,62-7.68,90.54a23.22,23.22,0,0,1-22.38,16.94H309c-8,0-9.46-11.43-1.69-13.41l.46-.12c4.52-1,9.83-1.86,14.66-2.5A17.94,17.94,0,0,0,338,187.88Z" transform="translate(-32.85 -32.01)"/><polygon class="cls-1" points="250.99 180.03 250.99 221.77 255.01 223.16 264.92 180.87 250.99 180.03"/><path class="cls-4" d="M284,252.86s-2.63,2.79-5.64,2.38-3.82,3.83,1.08,3.81a26.8,26.8,0,0,0,4.55-.39,7.94,7.94,0,0,1,4.06.5,1.32,1.32,0,0,0,1.44-.43c1.51-1.5-1.55-5.53-1.55-5.53Z" transform="translate(-32.85 -32.01)"/><path class="cls-4" d="M325.69,123.32l7.38-2.12s19.7,2.12,19.5,17.92c-.15,11.72-13.82,55.49-13.82,55.49h-30V179.2a44.92,44.92,0,0,0-5-21C299.13,149.42,296.7,134.12,325.69,123.32Z" transform="translate(-32.85 -32.01)"/><path class="cls-11" d="M320.11,142.11c1.21-13.89,20.86-15.61,24.66-2.2,2,7.1,3,17.35.71,31.78-5.6,34.77-72.59,12.18-72.59,12.18v-8.25s39.59,7.45,49.1-2.7C327.58,167,319.14,153.35,320.11,142.11Z" transform="translate(-32.85 -32.01)"/><path class="cls-7" d="M308.75,187.41l30,7.2s1.45,12.95-9,14-42.4-2.54-30,36.79H275.06s-15-42.26,21.72-50.75c4.45-1,11.92-1.86,12-6.44Z" transform="translate(-32.85 -32.01)"/><path class="cls-4" d="M174.58,110.89a43.18,43.18,0,0,0-20.78,34.73c-1.28,23,.81,47.76,30,45S174.58,110.89,174.58,110.89Z" transform="translate(-32.85 -32.01)"/><path class="cls-8" d="M174.58,110.89a43.18,43.18,0,0,0-20.78,34.73c-1.28,23,.81,47.76,30,45S174.58,110.89,174.58,110.89Z" transform="translate(-32.85 -32.01)"/><path class="cls-1" d="M192.29,86.79a30.66,30.66,0,0,0,0,8.12,2.45,2.45,0,0,0,2.9,1.89h0a5.4,5.4,0,0,0,4.4-3.87l1.64-4.19A4.36,4.36,0,0,0,199.56,84C196.91,81.87,192.54,83.84,192.29,86.79Z" transform="translate(-32.85 -32.01)"/><polygon class="cls-1" points="168.13 57.46 169.94 73.3 161.14 73.68 163.35 62 168.13 57.46"/><path class="cls-1" d="M192.05,89.86l-1.43,1.8a.78.78,0,0,0,.12,1.1.75.75,0,0,0,.31.15l1.84.43Z" transform="translate(-32.85 -32.01)"/><path class="cls-2" d="M195.61,96.55A5.71,5.71,0,0,0,198.52,95s-.25,2.92-3.57,5.65Z" transform="translate(-32.85 -32.01)"/><path class="cls-4" d="M184.21,107.08s37.75-8.45,51.27-.87-13,79-13,79l-41.69-1.32S144.31,114.34,184.21,107.08Z" transform="translate(-32.85 -32.01)"/><path class="cls-4" d="M192.65,252.31s-2,3.5-5.35,3.24-4.81,2.87-1.94,4.22,11.3-1.27,11.3-1.27l.72-6.19Z" transform="translate(-32.85 -32.01)"/><path class="cls-4" d="M223.18,251.54s1.38,3.75,4.79,4,4.31,3.58,1.27,4.47-11-3-11-3l.24-6.22Z" transform="translate(-32.85 -32.01)"/><path class="cls-8" d="M217,112.84s-12,7.68-5.87,25.36,7,30.31-7.27,25.88-13.27-24.18-13.27-24.18L176,142.16l-1.39,28,6.2,13.72L217,181.63l14.75-3.76,5.51-18.5-10-31.33Z" transform="translate(-32.85 -32.01)"/><path class="cls-7" d="M180.78,183.91l10.67,68.4h7s-6.45-51.44,4.82-57.65,13.49,57.65,13.49,57.65l7.4-.59L224,181.2Z" transform="translate(-32.85 -32.01)"/><path class="cls-4" d="M224.31,104s23.49-4,23.49,33-5.64,69.85-59.88,36.89l4.12-6.29s29.23,12.84,35.47,1.56S203.12,110.23,224.31,104Z" transform="translate(-32.85 -32.01)"/><path class="cls-5" d="M224.31,104s23.49-4,23.49,33-5.64,69.85-59.88,36.89l4.12-6.29s29.23,12.84,35.47,1.56S203.12,110.23,224.31,104Z" transform="translate(-32.85 -32.01)"/><rect class="cls-12" x="164.97" y="138.87" width="20.5" height="30.68" transform="translate(-65.17 15.39) rotate(-14.12)"/><path class="cls-1" d="M192.11,167.56s-9.79-7.76-11.33-1.83,8.62,6,8.62,6Z" transform="translate(-32.85 -32.01)"/><ellipse class="cls-7" cx="207.12" cy="20.03" rx="24.07" ry="20.03"/><polygon class="cls-7" points="190.33 29.17 181.77 43.75 195.88 33.28 190.33 29.17"/><circle class="cls-13" cx="197.64" cy="20.03" r="2.97"/><circle class="cls-13" cx="207.17" cy="20.03" r="2.97"/><circle class="cls-13" cx="216.6" cy="20.03" r="2.97"/><path class="cls-3" d="M193.24,87a9.72,9.72,0,0,0,1.09.3,6.88,6.88,0,0,1,1.53.51l.4.17a1.55,1.55,0,0,1,.93,1.44c0,1.55.49,4.41,4.25,4.73,0,0,3.81-5.72.76-10.15A10.08,10.08,0,0,0,194.5,80C190.41,79.82,189.35,85.72,193.24,87Z" transform="translate(-32.85 -32.01)"/><rect class="cls-9" x="50.12" y="180.02" width="4.2" height="36.25"/><path class="cls-10" d="M71.14,124.18s-3.87-20.72-22.42-11.34c-13.71,6.91-.31,62,7.67,90.54a23.22,23.22,0,0,0,22.38,16.94H105c8,0,9.46-11.43,1.69-13.41l-.46-.12c-4.53-1-9.84-1.86-14.67-2.5A17.94,17.94,0,0,1,76,187.88Z" transform="translate(-32.85 -32.01)"/><polygon class="cls-9" points="54.32 216.28 69.36 228.14 35.87 228.14 50.11 216.28 54.32 216.28"/><path class="cls-1" d="M84.72,97.05a30,30,0,0,1,.56,8,2.4,2.4,0,0,1-2.72,2A5.35,5.35,0,0,1,78,103.55l-1.92-4a4.33,4.33,0,0,1,1.35-4.8C79.84,92.56,84.24,94.13,84.72,97.05Z" transform="translate(-32.85 -32.01)"/><polygon class="cls-1" points="43.53 68.31 42.91 84.02 51.59 83.75 48.57 72.43 43.53 68.31"/><path class="cls-3" d="M83.56,97.4a19,19,0,0,1-4.39.18,4,4,0,0,1,.52,4.36,3.27,3.27,0,0,1-3.76,1.75l-.64-6.09A4.89,4.89,0,0,1,77.23,93a21,21,0,0,1,1.94-1.28c1.67-.92,4.41,0,5.84-1.43a1.17,1.17,0,0,1,1.65.06,1.25,1.25,0,0,1,.26.48c.5,1.84.51,4.8-1.88,6.09A4.55,4.55,0,0,1,83.56,97.4Z" transform="translate(-32.85 -32.01)"/><path class="cls-1" d="M80.18,101.73s-.25-1.82-1.61-1.52-1,3,.89,3Z" transform="translate(-32.85 -32.01)"/><path class="cls-1" d="M85.19,100.05l1.54,1.67a.77.77,0,0,1,0,1.09.79.79,0,0,1-.29.17l-1.78.56Z" transform="translate(-32.85 -32.01)"/><path class="cls-2" d="M82.21,106.89a5.66,5.66,0,0,1-3-1.33s.47,2.84,3.94,5.29Z" transform="translate(-32.85 -32.01)"/><path class="cls-4" d="M75.76,116l8.68-.27s19,4.06,23.72,28.25-8.69,45.81-8.69,45.81l-27.41.25S35.73,120.12,75.76,116Z" transform="translate(-32.85 -32.01)"/><path class="cls-7" d="M72.06,190.07s.37,15.71,11,17.06,35-6.83,38,6.44-3,34.35-3,34.35l7.42,2s16.67-31.89,6.86-47-32.84-13.2-32.84-13.2Z" transform="translate(-32.85 -32.01)"/><path class="cls-8" d="M69,133.47s-7,19.46,5.07,30,19,11.83,12.84,26.57l12.54-.25s6.59-12,7.92-20.46S69,133.47,69,133.47Z" transform="translate(-32.85 -32.01)"/><path class="cls-4" d="M89.46,123.9c-6.76-5.23-16.93-2.55-19.76,5.52a12.16,12.16,0,0,0-.07,7.77c3.22,10.32,8.29,24.36,27.24,29.43s34.85,8.87,36.37,2.23-2.71-15.1-18.27-20.3C103.91,144.79,98.06,130.54,89.46,123.9Z" transform="translate(-32.85 -32.01)"/><path class="cls-5" d="M89.46,123.9c-6.76-5.23-16.93-2.55-19.76,5.52a12.16,12.16,0,0,0-.07,7.77c3.22,10.32,8.29,24.36,27.24,29.43s34.85,8.87,36.37,2.23-2.71-15.1-18.27-20.3C103.91,144.79,98.06,130.54,89.46,123.9Z" transform="translate(-32.85 -32.01)"/><path class="cls-1" d="M111.78,147.09s5.25-3.87,9.31,0S117.11,156.54,111.78,147.09Z" transform="translate(-32.85 -32.01)"/><path class="cls-8" d="M323.61,134.34s-14.62,5.29-9.61,23-5.26,20.48-5.26,20.48L322,190.82l16.76,3.79L344,176.94Z" transform="translate(-32.85 -32.01)"/><rect class="cls-14" x="97.64" y="160.31" width="6.82" height="68.27"/><rect class="cls-14" x="238.78" y="160.31" width="6.82" height="68.27"/><rect class="cls-10" x="90.76" y="149.61" width="161.14" height="17.98"/><path class="cls-1" d="M197.28,92.1a1.21,1.21,0,0,1-.18-1.2c.28-.66.81-1.52,1.7-1.39s1.07,1.59.45,2.55a1.22,1.22,0,0,1-1.7.28,1.2,1.2,0,0,1-.27-.28Z" transform="translate(-32.85 -32.01)"/><path class="cls-1" d="M320.11,142.11c1.21-13.89,20.86-15.61,24.66-2.2,2,7.1,3,17.35.71,31.78-5.6,34.77-72.59,12.18-72.59,12.18v-8.25s39.59,7.45,49.1-2.7C327.58,167,319.14,153.35,320.11,142.11Z" transform="translate(-32.85 -32.01)"/><polygon class="cls-12" points="204.44 149.61 195.76 117.26 199.97 116.36 208.16 144.67 231.84 146.7 231.84 149.61 204.44 149.61"/><path class="cls-1" d="M272.89,175.66s-8.69-4.22-11.42-.84.43,8.46,11.42,9.09Z" transform="translate(-32.85 -32.01)"/><rect class="cls-4" x="268.06" y="177.76" width="11.04" height="3.93" transform="translate(34.73 402.09) rotate(-84.3)"/><polygon class="cls-9" points="293.91 216.28 278.87 228.14 312.37 228.14 298.13 216.28 293.91 216.28"/></svg>